<?xml version="1.0" encoding="UTF-8"?>
<svg id="Layer_1" data-name="Layer 1" xmlns="http://www.w3.org/2000/svg" width="46cm" height="17cm" xmlns:xlink="http://www.w3.org/1999/xlink" viewBox="0 0 1303.94 481.89">
  <defs>
    <style>
      .cls-1 {
        stroke: url(#linear-gradient-5);
      }

      .cls-1, .cls-2, .cls-3, .cls-4, .cls-5, .cls-6, .cls-7, .cls-8, .cls-9, .cls-10, .cls-11 {
        fill: none;
        stroke-linecap: round;
        stroke-linejoin: round;
        stroke-width: 7.78px;
      }

      .cls-12 {
        fill: url(#GradientFill_2-3);
      }

      .cls-2 {
        stroke: url(#linear-gradient-14);
      }

      .cls-13 {
        fill: url(#linear-gradient-15);
      }

      .cls-3 {
        stroke: url(#linear-gradient-32);
      }

      .cls-4 {
        stroke: url(#linear-gradient-29);
      }

      .cls-14 {
        fill: url(#linear-gradient-18);
      }

      .cls-15 {
        fill: url(#linear-gradient-28);
      }

      .cls-5 {
        stroke: url(#linear-gradient-2);
      }

      .cls-16 {
        fill: url(#linear-gradient-6);
      }

      .cls-6 {
        stroke: url(#linear-gradient-17);
      }

      .cls-7 {
        stroke: url(#linear-gradient-20);
      }

      .cls-8 {
        stroke: url(#linear-gradient-23);
      }

      .cls-9 {
        stroke: url(#linear-gradient-11);
      }

      .cls-17 {
        fill: url(#linear-gradient-10);
      }

      .cls-18 {
        fill: url(#GradientFill_2-2);
      }

      .cls-19 {
        fill: url(#linear-gradient-16);
      }

      .cls-20 {
        fill: url(#linear-gradient-31);
      }

      .cls-10 {
        stroke: url(#linear-gradient-26);
      }

      .cls-21 {
        fill: url(#linear-gradient-21);
      }

      .cls-22 {
        fill: url(#linear-gradient-25);
      }

      .cls-11 {
        stroke: url(#linear-gradient-8);
      }

      .cls-23 {
        fill: url(#linear-gradient-34);
      }

      .cls-24 {
        fill: url(#GradientFill_2);
      }

      .cls-25 {
        fill: url(#linear-gradient-7);
      }

      .cls-26 {
        fill: url(#linear-gradient-24);
      }

      .cls-27 {
        fill: url(#linear-gradient-9);
      }

      .cls-28 {
        fill: url(#linear-gradient-22);
      }

      .cls-29 {
        fill: url(#linear-gradient-3);
      }

      .cls-30 {
        fill: url(#linear-gradient);
      }

      .cls-31 {
        fill: url(#linear-gradient-27);
      }

      .cls-32 {
        fill: url(#linear-gradient-33);
      }

      .cls-33 {
        fill: url(#linear-gradient-30);
      }

      .cls-34 {
        fill: url(#linear-gradient-19);
      }

      .cls-35 {
        fill: url(#linear-gradient-4);
      }

      .cls-36 {
        fill: url(#linear-gradient-12);
      }

      .cls-37 {
        fill: url(#linear-gradient-13);
      }
    </style>
    <linearGradient id="GradientFill_2" data-name="GradientFill 2" x1="462.79" y1="148.44" x2="1280.05" y2="148.44" gradientUnits="userSpaceOnUse">
      <stop offset="0" stop-color="#0aace4"/>
      <stop offset="1" stop-color="#3176ba"/>
    </linearGradient>
    <linearGradient id="GradientFill_2-2" data-name="GradientFill 2" x1="464.05" y1="288.48" x2="1277.16" y2="288.48" xlink:href="#GradientFill_2"/>
    <linearGradient id="linear-gradient" x1="246.44" y1="170.56" x2="399.42" y2="410.41" gradientUnits="userSpaceOnUse">
      <stop offset="0" stop-color="#3abaae"/>
      <stop offset=".41" stop-color="#37b5b0"/>
      <stop offset=".86" stop-color="#2981c4"/>
      <stop offset="1" stop-color="#2a82c3"/>
    </linearGradient>
    <linearGradient id="GradientFill_2-3" data-name="GradientFill 2" x1="227.37" y1="287.01" x2="444.07" y2="287.01" xlink:href="#GradientFill_2"/>
    <linearGradient id="linear-gradient-2" x1="20" y1="200.99" x2="347.01" y2="200.99" xlink:href="#linear-gradient"/>
    <linearGradient id="linear-gradient-3" x1="20" y1="347.94" x2="347.01" y2="347.94" xlink:href="#linear-gradient"/>
    <linearGradient id="linear-gradient-4" x1="20" y1="244.24" x2="347.01" y2="244.24" xlink:href="#linear-gradient"/>
    <linearGradient id="linear-gradient-5" x1="76.38" y1="229.31" x2="157.88" y2="229.31" xlink:href="#linear-gradient"/>
    <linearGradient id="linear-gradient-6" x1="76.38" y1="146.4" x2="157.88" y2="146.4" xlink:href="#linear-gradient"/>
    <linearGradient id="linear-gradient-7" x1="76.38" y1="311.88" x2="157.88" y2="311.88" xlink:href="#linear-gradient"/>
    <linearGradient id="linear-gradient-8" x1="122.49" y1="203.24" x2="179.78" y2="203.24" xlink:href="#linear-gradient"/>
    <linearGradient id="linear-gradient-9" x1="122.49" y1="279.61" x2="179.78" y2="279.61" gradientTransform="translate(366.9 10.11) rotate(67.5)" xlink:href="#linear-gradient"/>
    <linearGradient id="linear-gradient-10" x1="122.49" y1="126.53" x2="179.78" y2="126.53" xlink:href="#linear-gradient"/>
    <linearGradient id="linear-gradient-11" x1="185.9" y1="184.52" x2="243.19" y2="184.52" xlink:href="#linear-gradient"/>
    <linearGradient id="linear-gradient-12" x1="185.9" y1="126.53" x2="243.19" y2="126.53" xlink:href="#linear-gradient"/>
    <linearGradient id="linear-gradient-13" x1="185.9" y1="242.18" x2="243.19" y2="242.18" xlink:href="#linear-gradient"/>
    <linearGradient id="linear-gradient-14" x1="207.35" y1="229.31" x2="288.84" y2="229.31" xlink:href="#linear-gradient"/>
    <linearGradient id="linear-gradient-15" x1="207.35" y1="146.4" x2="288.84" y2="146.4" xlink:href="#linear-gradient"/>
    <linearGradient id="linear-gradient-16" x1="207.35" y1="311.88" x2="288.84" y2="311.88" xlink:href="#linear-gradient"/>
    <linearGradient id="linear-gradient-17" x1="83.78" y1="107.25" x2="281.44" y2="107.25" xlink:href="#linear-gradient"/>
    <linearGradient id="linear-gradient-18" x1="83.78" y1="107.25" x2="281.44" y2="107.25" xlink:href="#linear-gradient"/>
    <linearGradient id="linear-gradient-19" x1="83.78" y1="107.25" x2="281.44" y2="107.25" xlink:href="#linear-gradient"/>
    <linearGradient id="linear-gradient-20" x1="76.38" y1="229.31" x2="157.88" y2="229.31" xlink:href="#linear-gradient"/>
    <linearGradient id="linear-gradient-21" x1="76.38" y1="146.4" x2="157.88" y2="146.4" xlink:href="#linear-gradient"/>
    <linearGradient id="linear-gradient-22" x1="76.38" y1="311.88" x2="157.88" y2="311.88" xlink:href="#linear-gradient"/>
    <linearGradient id="linear-gradient-23" x1="122.49" y1="203.24" x2="179.78" y2="203.24" xlink:href="#linear-gradient"/>
    <linearGradient id="linear-gradient-24" x1="122.49" y1="279.61" x2="179.78" y2="279.61" gradientTransform="translate(366.9 10.11) rotate(67.5)" xlink:href="#linear-gradient"/>
    <linearGradient id="linear-gradient-25" x1="122.49" y1="126.53" x2="179.78" y2="126.53" xlink:href="#linear-gradient"/>
    <linearGradient id="linear-gradient-26" x1="185.9" y1="184.52" x2="243.19" y2="184.52" xlink:href="#linear-gradient"/>
    <linearGradient id="linear-gradient-27" x1="185.9" y1="126.53" x2="243.19" y2="126.53" xlink:href="#linear-gradient"/>
    <linearGradient id="linear-gradient-28" x1="185.9" y1="242.18" x2="243.19" y2="242.18" xlink:href="#linear-gradient"/>
    <linearGradient id="linear-gradient-29" x1="207.35" y1="229.31" x2="288.84" y2="229.31" xlink:href="#linear-gradient"/>
    <linearGradient id="linear-gradient-30" x1="207.35" y1="146.4" x2="288.84" y2="146.4" xlink:href="#linear-gradient"/>
    <linearGradient id="linear-gradient-31" x1="207.35" y1="311.88" x2="288.84" y2="311.88" xlink:href="#linear-gradient"/>
    <linearGradient id="linear-gradient-32" x1="83.78" y1="107.25" x2="281.44" y2="107.25" xlink:href="#linear-gradient"/>
    <linearGradient id="linear-gradient-33" x1="83.78" y1="107.25" x2="281.44" y2="107.25" xlink:href="#linear-gradient"/>
    <linearGradient id="linear-gradient-34" x1="83.78" y1="107.25" x2="281.44" y2="107.25" xlink:href="#linear-gradient"/>
  </defs>
  <g>
    <path class="cls-24" d="m462.79,100.53c0-4.31,3.49-7.8,7.8-7.8h95.88c4.31,0,7.8,3.49,7.8,7.8s-3.49,7.8-7.8,7.8h-95.88c-4.31,0-7.8-3.49-7.8-7.8Zm55.74,33.06c-4.31,0-7.8,3.49-7.8,7.8v55.03c0,4.31,3.49,7.8,7.8,7.8s7.8-3.49,7.8-7.8v-55.03c0-4.31-3.49-7.8-7.8-7.8Zm39.32,70.63h20.93c4.31,0,7.8-3.49,7.8-7.8s-3.49-7.8-7.8-7.8h-6.56c-1.74,0-2.9-1.79-2.19-3.38l31.03-69.39c1.11-2.48,4.63-2.48,5.74,0l30.94,69.39c.71,1.59-.45,3.38-2.19,3.38h-6.06c-4.31,0-7.8,3.49-7.8,7.8s3.49,7.8,7.8,7.8h20.41c5.07,0,8.41-5.27,6.25-9.85l-46.12-97.9c-2.55-5.05-9.76-5.05-12.3,0l-46.12,97.9c-2.16,4.58,1.18,9.85,6.25,9.85Zm142.04,0h48.04c17.56,0,31.73-14.07,31.73-31.72v-67.77c0-6.63-5.37-12-12-12h-30.81c-4.31,0-7.8,3.49-7.8,7.8s3.49,7.8,7.8,7.8h23.06c2.29,0,4.15,1.86,4.15,4.15v60.01c0,8.9-7.22,16.12-16.12,16.12h-48.04c-8.83,0-16.12-7.08-16.12-16.12h0c0-4.31-3.49-7.8-7.8-7.8s-7.8,3.49-7.8,7.8h0c0,17.52,14.2,31.72,31.72,31.72Zm172.03-15.6h-72.17c-4.31,0-7.8,3.49-7.8,7.8s3.49,7.8,7.8,7.8h72.37c16.83,0,31.42-13.86,31.42-32.03,0-16.83-13.86-31.42-31.93-31.42h-47.74c-9.24,0-16.22-6.98-16.22-15.91s6.98-16.53,15.91-16.53h197.93c4.31,0,7.8-3.49,7.8-7.8s-3.49-7.8-7.8-7.8h-198.14c-16.73,0-31.31,14.06-31.31,32.34,0,16.74,13.66,31.42,31.83,31.42h47.74c9.24,0,16.22,6.98,16.22,15.91s-6.98,16.22-15.91,16.22Zm45.89-15.09c.52,17.14,14.37,30.7,31.73,30.7h71.97c4.31,0,7.8-3.49,7.8-7.8s-3.49-7.8-7.8-7.8h-71.97c-8.73,0-15.91-6.98-16.12-15.81v-16.53h72.68c4.31,0,7.8-3.49,7.8-7.8s-3.49-7.8-7.8-7.8h-76.29c-6.63,0-12,5.37-12,12v20.85Zm351.25-25.05c6.57-5.85,10.98-14.27,10.98-24.02,0-16.83-13.76-31.72-31.72-31.72h-197.83c-4.31,0-7.8,3.49-7.8,7.8s3.49,7.8,7.8,7.8h197.36c8.97,0,16.57,7.12,16.59,16.09.01,8.84-6.97,16.24-16.12,16.24h-67.77c-6.63,0-12,5.37-12,12v43.75c0,4.31,3.49,7.8,7.8,7.8s7.8-3.49,7.8-7.8v-40.14h64.16c9.14,0,16.12,7.39,16.12,16.22v23.92c0,4.31,3.49,7.8,7.8,7.8s7.8-3.49,7.8-7.8v-23.92c0-9.76-4.31-18.17-10.98-24.02Zm-194.65,55.74h71.97c4.31,0,7.8-3.49,7.8-7.8s-3.49-7.8-7.8-7.8h-71.97c-8.73,0-15.91-6.98-16.12-15.81v-16.53h62.93c4.31,0,7.8-3.49,7.8-7.8s-3.49-7.8-7.8-7.8h-66.54c-6.63,0-12,5.37-12,12v20.85c.52,17.14,14.37,30.7,31.73,30.7Zm78.13-55.74c0-4.31-3.49-7.8-7.8-7.8s-7.8,3.49-7.8,7.8,3.49,7.8,7.8,7.8,7.8-3.49,7.8-7.8Zm-219.13-23.61c0-4.31-3.49-7.8-7.8-7.8s-7.8,3.49-7.8,7.8,3.49,7.8,7.8,7.8,7.8-3.49,7.8-7.8Zm-219.41-16.53c4.31,0,7.8-3.49,7.8-7.8s-3.49-7.8-7.8-7.8-7.8,3.49-7.8,7.8,3.49,7.8,7.8,7.8Zm-117.88,57.38c0,4.31,3.49,7.8,7.8,7.8s7.8-3.49,7.8-7.8-3.49-7.8-7.8-7.8-7.8,3.49-7.8,7.8Zm-77.59-52.66c-4.31,0-7.8,3.49-7.8,7.8s3.49,7.8,7.8,7.8,7.8-3.49,7.8-7.8-3.49-7.8-7.8-7.8Z"/>
    <path class="cls-18" d="m1268.9,252.22c-4.56,0-8.26,3.7-8.26,8.26v32.4h-39.3v.15h-46.29v-28.82c0-6.63-5.37-12-12-12h-77.74c-4.56,0-8.26,3.7-8.26,8.26s3.7,8.26,8.26,8.26h73.22v24.14h-120.78v.15h-58.58v-32.7c0-4.56-3.7-8.26-8.26-8.26s-8.26,3.7-8.26,8.26v32.55h-24.14v-32.55c0-4.56-3.7-8.26-8.26-8.26h-.15c-4.56,0-8.26,3.7-8.26,8.26v32.55h-24.14v-32.55c0-4.56-3.7-8.26-8.26-8.26h0c-4.56,0-8.26,3.7-8.26,8.26v32.55h-39.3v.15h-26.1s-7.9,0-7.9,0h0s-12.29,0-12.29,0v-32.55c0-4.56-3.7-8.26-8.26-8.26s-8.26,3.7-8.26,8.26v32.4h-39.3v.15h-218.35v-32.48c0-4.61-3.73-8.34-8.34-8.34s-8.34,3.73-8.34,8.34v67.14c0,3.31-2.69,6-6,6h-26.4c-4.56,0-8.26,3.7-8.26,8.26s3.7,8.26,8.26,8.26h37.08c6.63,0,12-5.37,12-12v-28.66h743.77c6.63,0,12-5.37,12-12v-37.08c0-4.56-3.7-8.26-8.26-8.26Zm-40.74-19.08c0-4.31-3.49-7.8-7.8-7.8s-7.8,3.49-7.8,7.8,3.49,7.8,7.8,7.8,7.8-3.49,7.8-7.8Zm-104.36,96.44c-4.31,0-7.8,3.49-7.8,7.8s3.49,7.8,7.8,7.8,7.8-3.49,7.8-7.8-3.49-7.8-7.8-7.8Zm-440.09,6.43c-4.31,0-7.8,3.49-7.8,7.8s3.49,7.8,7.8,7.8,7.8-3.49,7.8-7.8-3.49-7.8-7.8-7.8Zm-17.65,0c-4.31,0-7.8,3.49-7.8,7.8s3.49,7.8,7.8,7.8,7.8-3.49,7.8-7.8-3.49-7.8-7.8-7.8Zm579.76-102.87c0-4.31-3.49-7.8-7.8-7.8s-7.8,3.49-7.8,7.8,3.49,7.8,7.8,7.8,7.8-3.49,7.8-7.8Z"/>
  </g>
  <g>
    <g>
      <polygon class="cls-30" points="304.9 440.52 227.37 223.32 444.07 302.14 352.93 350.7 304.9 440.52"/>
      <polygon class="cls-12" points="352.93 350.7 227.37 223.32 444.07 302.14 352.93 350.7"/>
    </g>
    <g>
      <path class="cls-5" d="m246.11,347.85c-19.22,8.21-40.39,12.75-62.61,12.75-88.15,0-159.61-71.46-159.61-159.61S95.35,41.37,183.5,41.37s159.61,71.46,159.61,159.61c0,15.1-2.1,29.72-6.02,43.56"/>
      <path class="cls-29" d="m243.2,342.05c3.25-1.43,7.05.04,8.49,3.3,1.43,3.25-.04,7.05-3.3,8.49-3.25,1.43-7.05-.04-8.49-3.3s.04-7.05,3.3-8.49Z"/>
      <path class="cls-35" d="m331.02,242.38c-1.03,3.4.9,7,4.3,8.02,3.4,1.03,7-.9,8.02-4.3,1.03-3.4-.9-7-4.3-8.02s-7,.9-8.02,4.3Z"/>
    </g>
    <g>
      <g>
        <polyline class="cls-1" points="86.67 146.4 153.98 146.4 153.98 312.22"/>
        <path class="cls-16" d="m87.01,153.13c-3.72,0-6.73-3.01-6.73-6.73s3.01-6.73,6.73-6.73,6.73,3.01,6.73,6.73-3.01,6.73-6.73,6.73Z"/>
        <path class="cls-25" d="m147.25,311.88c0,3.72,3.01,6.73,6.73,6.73s6.73-3.01,6.73-6.73-3.01-6.73-6.73-6.73-6.73,3.01-6.73,6.73Z"/>
      </g>
      <g>
        <polyline class="cls-11" points="175.88 279.94 175.88 126.53 132.77 126.53"/>
        <circle class="cls-27" cx="175.88" cy="279.61" r="6.73" transform="translate(-149.75 335.1) rotate(-67.5)"/>
        <path class="cls-17" d="m133.11,119.8c-3.72,0-6.73,3.01-6.73,6.73s3.01,6.73,6.73,6.73,6.73-3.01,6.73-6.73-3.01-6.73-6.73-6.73Z"/>
      </g>
      <g>
        <polyline class="cls-9" points="232.91 126.53 189.79 126.53 189.79 242.51"/>
        <path class="cls-36" d="m232.57,119.8c3.72,0,6.73,3.01,6.73,6.73s-3.01,6.73-6.73,6.73-6.73-3.01-6.73-6.73,3.01-6.73,6.73-6.73Z"/>
        <path class="cls-37" d="m183.06,242.18c0,3.72,3.01,6.73,6.73,6.73s6.73-3.01,6.73-6.73-3.01-6.73-6.73-6.73-6.73,3.01-6.73,6.73Z"/>
      </g>
      <g>
        <polyline class="cls-2" points="278.56 146.4 211.24 146.4 211.24 312.22"/>
        <path class="cls-13" d="m278.22,139.67c3.72,0,6.73,3.01,6.73,6.73s-3.01,6.73-6.73,6.73-6.73-3.01-6.73-6.73,3.01-6.73,6.73-6.73Z"/>
        <path class="cls-19" d="m204.51,311.88c0,3.72,3.01,6.73,6.73,6.73s6.73-3.01,6.73-6.73-3.01-6.73-6.73-6.73-6.73,3.01-6.73,6.73Z"/>
      </g>
      <g>
        <line class="cls-6" x1="94.07" y1="107.25" x2="271.16" y2="107.25"/>
        <path class="cls-14" d="m94.4,113.98c-3.72,0-6.73-3.01-6.73-6.73s3.01-6.73,6.73-6.73,6.73,3.01,6.73,6.73-3.01,6.73-6.73,6.73Z"/>
        <path class="cls-34" d="m270.82,113.98c3.72,0,6.73-3.01,6.73-6.73s-3.01-6.73-6.73-6.73-6.73,3.01-6.73,6.73,3.01,6.73,6.73,6.73Z"/>
      </g>
    </g>
    <g>
      <g>
        <polyline class="cls-7" points="86.67 146.4 153.98 146.4 153.98 312.22"/>
        <path class="cls-21" d="m87.01,153.13c-3.72,0-6.73-3.01-6.73-6.73s3.01-6.73,6.73-6.73,6.73,3.01,6.73,6.73-3.01,6.73-6.73,6.73Z"/>
        <path class="cls-28" d="m147.25,311.88c0,3.72,3.01,6.73,6.73,6.73s6.73-3.01,6.73-6.73-3.01-6.73-6.73-6.73-6.73,3.01-6.73,6.73Z"/>
      </g>
      <g>
        <polyline class="cls-8" points="175.88 279.94 175.88 126.53 132.77 126.53"/>
        <circle class="cls-26" cx="175.88" cy="279.61" r="6.73" transform="translate(-149.75 335.1) rotate(-67.5)"/>
        <path class="cls-22" d="m133.11,119.8c-3.72,0-6.73,3.01-6.73,6.73s3.01,6.73,6.73,6.73,6.73-3.01,6.73-6.73-3.01-6.73-6.73-6.73Z"/>
      </g>
      <g>
        <polyline class="cls-10" points="232.91 126.53 189.79 126.53 189.79 242.51"/>
        <path class="cls-31" d="m232.57,119.8c3.72,0,6.73,3.01,6.73,6.73s-3.01,6.73-6.73,6.73-6.73-3.01-6.73-6.73,3.01-6.73,6.73-6.73Z"/>
        <path class="cls-15" d="m183.06,242.18c0,3.72,3.01,6.73,6.73,6.73s6.73-3.01,6.73-6.73-3.01-6.73-6.73-6.73-6.73,3.01-6.73,6.73Z"/>
      </g>
      <g>
        <polyline class="cls-4" points="278.56 146.4 211.24 146.4 211.24 312.22"/>
        <path class="cls-33" d="m278.22,139.67c3.72,0,6.73,3.01,6.73,6.73s-3.01,6.73-6.73,6.73-6.73-3.01-6.73-6.73,3.01-6.73,6.73-6.73Z"/>
        <path class="cls-20" d="m204.51,311.88c0,3.72,3.01,6.73,6.73,6.73s6.73-3.01,6.73-6.73-3.01-6.73-6.73-6.73-6.73,3.01-6.73,6.73Z"/>
      </g>
      <g>
        <line class="cls-3" x1="94.07" y1="107.25" x2="271.16" y2="107.25"/>
        <path class="cls-32" d="m94.4,113.98c-3.72,0-6.73-3.01-6.73-6.73s3.01-6.73,6.73-6.73,6.73,3.01,6.73,6.73-3.01,6.73-6.73,6.73Z"/>
        <path class="cls-23" d="m270.82,113.98c3.72,0,6.73-3.01,6.73-6.73s-3.01-6.73-6.73-6.73-6.73,3.01-6.73,6.73,3.01,6.73,6.73,6.73Z"/>
      </g>
    </g>
  </g>
</svg>